<?xml version="1.0" encoding="utf-8" standalone="no"?>
<!DOCTYPE svg PUBLIC "-//W3C//DTD SVG 1.1//EN"
  "http://www.w3.org/Graphics/SVG/1.1/DTD/svg11.dtd">
<svg xmlns:xlink="http://www.w3.org/1999/xlink" width="1440pt" height="756pt" viewBox="0 0 1440 756" xmlns="http://www.w3.org/2000/svg" version="1.1">
 <metadata>
  <rdf:RDF xmlns:dc="http://purl.org/dc/elements/1.1/" xmlns:cc="http://creativecommons.org/ns#" xmlns:rdf="http://www.w3.org/1999/02/22-rdf-syntax-ns#">
   <cc:Work>
    <dc:type rdf:resource="http://purl.org/dc/dcmitype/StillImage"/>
    <dc:format>image/svg+xml</dc:format>
    <dc:creator>
     <cc:Agent>
      <dc:title>IsaacLab gait-closure comparison</dc:title>
     </cc:Agent>
    </dc:creator>
   </cc:Work>
  </rdf:RDF>
 </metadata>
 <defs>
  <style type="text/css">*{stroke-linejoin: round; stroke-linecap: butt}</style>
 </defs>
 <g id="figure_1">
  <g id="patch_1">
   <path d="M 0 756 
L 1440 756 
L 1440 0 
L 0 0 
z
" style="fill: #ffffff"/>
  </g>
  <g id="axes_1">
   <g id="patch_2">
    <path d="M 122.4 328.953333 
L 1404 328.953333 
L 1404 109.62 
L 122.4 109.62 
z
" style="fill: #ffffff"/>
   </g>
   <g id="matplotlib.axis_1">
    <g id="xtick_1">
     <g id="line2d_1"/>
     <g id="text_1">
      <text style="font-size: 12px; font-family: 'Arial', 'Helvetica', 'DejaVu Sans', sans-serif; text-anchor: middle; fill: #3c4043" x="282.6" y="341.042708" transform="rotate(-0 282.6 341.042708)">Trot</text>
     </g>
    </g>
    <g id="xtick_2">
     <g id="line2d_2"/>
     <g id="text_2">
      <text style="font-size: 12px; font-family: 'Arial', 'Helvetica', 'DejaVu Sans', sans-serif; text-anchor: middle; fill: #3c4043" x="603" y="341.042708" transform="rotate(-0 603 341.042708)">Bound</text>
     </g>
    </g>
    <g id="xtick_3">
     <g id="line2d_3"/>
     <g id="text_3">
      <text style="font-size: 12px; font-family: 'Arial', 'Helvetica', 'DejaVu Sans', sans-serif; text-anchor: middle; fill: #3c4043" x="923.4" y="341.042708" transform="rotate(-0 923.4 341.042708)">Half-bound</text>
     </g>
    </g>
    <g id="xtick_4">
     <g id="line2d_4"/>
     <g id="text_4">
      <text style="font-size: 12px; font-family: 'Arial', 'Helvetica', 'DejaVu Sans', sans-serif; text-anchor: middle; fill: #3c4043" x="1243.8" y="341.188958" transform="rotate(-0 1243.8 341.188958)">Gallop</text>
     </g>
    </g>
   </g>
   <g id="matplotlib.axis_2">
    <g id="ytick_1">
     <g id="line2d_5">
      <path d="M 122.4 328.953333 
L 1404 328.953333 
" clip-path="url(#p05dd538713)" style="fill: none; stroke: #e2e5e9; stroke-linecap: square"/>
     </g>
     <g id="line2d_6"/>
     <g id="text_5">
      <text style="font-size: 12px; font-family: 'Arial', 'Helvetica', 'DejaVu Sans', sans-serif; text-anchor: end; fill: #5f6368" x="118.9" y="333.248021" transform="rotate(-0 118.9 333.248021)">0.00</text>
     </g>
    </g>
    <g id="ytick_2">
     <g id="line2d_7">
      <path d="M 122.4 285.086667 
L 1404 285.086667 
" clip-path="url(#p05dd538713)" style="fill: none; stroke: #e2e5e9; stroke-linecap: square"/>
     </g>
     <g id="line2d_8"/>
     <g id="text_6">
      <text style="font-size: 12px; font-family: 'Arial', 'Helvetica', 'DejaVu Sans', sans-serif; text-anchor: end; fill: #5f6368" x="118.9" y="289.381354" transform="rotate(-0 118.9 289.381354)">0.01</text>
     </g>
    </g>
    <g id="ytick_3">
     <g id="line2d_9">
      <path d="M 122.4 241.22 
L 1404 241.22 
" clip-path="url(#p05dd538713)" style="fill: none; stroke: #e2e5e9; stroke-linecap: square"/>
     </g>
     <g id="line2d_10"/>
     <g id="text_7">
      <text style="font-size: 12px; font-family: 'Arial', 'Helvetica', 'DejaVu Sans', sans-serif; text-anchor: end; fill: #5f6368" x="118.9" y="245.514688" transform="rotate(-0 118.9 245.514688)">0.02</text>
     </g>
    </g>
    <g id="ytick_4">
     <g id="line2d_11">
      <path d="M 122.4 197.353333 
L 1404 197.353333 
" clip-path="url(#p05dd538713)" style="fill: none; stroke: #e2e5e9; stroke-linecap: square"/>
     </g>
     <g id="line2d_12"/>
     <g id="text_8">
      <text style="font-size: 12px; font-family: 'Arial', 'Helvetica', 'DejaVu Sans', sans-serif; text-anchor: end; fill: #5f6368" x="118.9" y="201.648021" transform="rotate(-0 118.9 201.648021)">0.03</text>
     </g>
    </g>
    <g id="ytick_5">
     <g id="line2d_13">
      <path d="M 122.4 153.486667 
L 1404 153.486667 
" clip-path="url(#p05dd538713)" style="fill: none; stroke: #e2e5e9; stroke-linecap: square"/>
     </g>
     <g id="line2d_14"/>
     <g id="text_9">
      <text style="font-size: 12px; font-family: 'Arial', 'Helvetica', 'DejaVu Sans', sans-serif; text-anchor: end; fill: #5f6368" x="118.9" y="157.781354" transform="rotate(-0 118.9 157.781354)">0.04</text>
     </g>
    </g>
    <g id="ytick_6">
     <g id="line2d_15">
      <path d="M 122.4 109.62 
L 1404 109.62 
" clip-path="url(#p05dd538713)" style="fill: none; stroke: #e2e5e9; stroke-linecap: square"/>
     </g>
     <g id="line2d_16"/>
     <g id="text_10">
      <text style="font-size: 12px; font-family: 'Arial', 'Helvetica', 'DejaVu Sans', sans-serif; text-anchor: end; fill: #5f6368" x="118.9" y="113.914688" transform="rotate(-0 118.9 113.914688)">0.05</text>
     </g>
    </g>
    <g id="text_11">
     <text style="font-size: 14px; font-family: 'Arial', 'Helvetica', 'DejaVu Sans', sans-serif; text-anchor: middle; fill: #202124" x="76.600313" y="219.286667" transform="rotate(-90 76.600313 219.286667)">Forward velocity RMSE [m/s]</text>
    </g>
   </g>
   <g id="line2d_17">
    <path d="M 122.4 328.953333 
L 1404 328.953333 
" clip-path="url(#p05dd538713)" style="fill: none; stroke: #9aa0a6; stroke-width: 1.5; stroke-linecap: square"/>
   </g>
   <g id="patch_3">
    <path d="M 169.101504 328.953333 
L 211.548096 328.953333 
L 211.548096 230.342883 
L 169.101504 230.342883 
z
" clip-path="url(#p05dd538713)" style="fill: #202124; opacity: 0.88"/>
   </g>
   <g id="patch_4">
    <path d="M 489.501504 328.953333 
L 531.948096 328.953333 
L 531.948096 190.932537 
L 489.501504 190.932537 
z
" clip-path="url(#p05dd538713)" style="fill: #202124; opacity: 0.88"/>
   </g>
   <g id="patch_5">
    <path d="M 809.901504 328.953333 
L 852.348096 328.953333 
L 852.348096 182.47278 
L 809.901504 182.47278 
z
" clip-path="url(#p05dd538713)" style="fill: #202124; opacity: 0.88"/>
   </g>
   <g id="patch_6">
    <path d="M 1130.301504 328.953333 
L 1172.748096 328.953333 
L 1172.748096 201.061754 
L 1130.301504 201.061754 
z
" clip-path="url(#p05dd538713)" style="fill: #202124; opacity: 0.88"/>
   </g>
   <g id="patch_7">
    <path d="M 215.239104 328.953333 
L 257.685696 328.953333 
L 257.685696 216.017337 
L 215.239104 216.017337 
z
" clip-path="url(#p05dd538713)" style="fill: #0072b2; opacity: 0.88"/>
   </g>
   <g id="patch_8">
    <path d="M 535.639104 328.953333 
L 578.085696 328.953333 
L 578.085696 178.780874 
L 535.639104 178.780874 
z
" clip-path="url(#p05dd538713)" style="fill: #0072b2; opacity: 0.88"/>
   </g>
   <g id="patch_9">
    <path d="M 856.039104 328.953333 
L 898.485696 328.953333 
L 898.485696 182.865326 
L 856.039104 182.865326 
z
" clip-path="url(#p05dd538713)" style="fill: #0072b2; opacity: 0.88"/>
   </g>
   <g id="patch_10">
    <path d="M 1176.439104 328.953333 
L 1218.885696 328.953333 
L 1218.885696 182.631354 
L 1176.439104 182.631354 
z
" clip-path="url(#p05dd538713)" style="fill: #0072b2; opacity: 0.88"/>
   </g>
   <g id="patch_11">
    <path d="M 261.376704 328.953333 
L 303.823296 328.953333 
L 303.823296 197.733952 
L 261.376704 197.733952 
z
" clip-path="url(#p05dd538713)" style="fill: #56b4e9; opacity: 0.88"/>
   </g>
   <g id="patch_12">
    <path d="M 581.776704 328.953333 
L 624.223296 328.953333 
L 624.223296 167.209155 
L 581.776704 167.209155 
z
" clip-path="url(#p05dd538713)" style="fill: #56b4e9; opacity: 0.88"/>
   </g>
   <g id="patch_13">
    <path d="M 902.176704 328.953333 
L 944.623296 328.953333 
L 944.623296 154.045127 
L 902.176704 154.045127 
z
" clip-path="url(#p05dd538713)" style="fill: #56b4e9; opacity: 0.88"/>
   </g>
   <g id="patch_14">
    <path d="M 1222.576704 328.953333 
L 1265.023296 328.953333 
L 1265.023296 171.857674 
L 1222.576704 171.857674 
z
" clip-path="url(#p05dd538713)" style="fill: #56b4e9; opacity: 0.88"/>
   </g>
   <g id="patch_15">
    <path d="M 307.514304 328.953333 
L 349.960896 328.953333 
L 349.960896 189.084766 
L 307.514304 189.084766 
z
" clip-path="url(#p05dd538713)" style="fill: #d97706; opacity: 0.88"/>
   </g>
   <g id="patch_16">
    <path d="M 627.914304 328.953333 
L 670.360896 328.953333 
L 670.360896 186.44181 
L 627.914304 186.44181 
z
" clip-path="url(#p05dd538713)" style="fill: #d97706; opacity: 0.88"/>
   </g>
   <g id="patch_17">
    <path d="M 948.314304 328.953333 
L 990.760896 328.953333 
L 990.760896 167.714976 
L 948.314304 167.714976 
z
" clip-path="url(#p05dd538713)" style="fill: #d97706; opacity: 0.88"/>
   </g>
   <g id="patch_18">
    <path d="M 1268.714304 328.953333 
L 1311.160896 328.953333 
L 1311.160896 183.029249 
L 1268.714304 183.029249 
z
" clip-path="url(#p05dd538713)" style="fill: #d97706; opacity: 0.88"/>
   </g>
   <g id="patch_19">
    <path d="M 353.651904 328.953333 
L 396.098496 328.953333 
L 396.098496 220.723505 
L 353.651904 220.723505 
z
" clip-path="url(#p05dd538713)" style="fill: #00875a; opacity: 0.88"/>
   </g>
   <g id="patch_20">
    <path d="M 674.051904 328.953333 
L 716.498496 328.953333 
L 716.498496 161.068237 
L 674.051904 161.068237 
z
" clip-path="url(#p05dd538713)" style="fill: #00875a; opacity: 0.88"/>
   </g>
   <g id="patch_21">
    <path d="M 994.451904 328.953333 
L 1036.898496 328.953333 
L 1036.898496 161.595933 
L 994.451904 161.595933 
z
" clip-path="url(#p05dd538713)" style="fill: #00875a; opacity: 0.88"/>
   </g>
   <g id="patch_22">
    <path d="M 1314.851904 328.953333 
L 1357.298496 328.953333 
L 1357.298496 190.007227 
L 1314.851904 190.007227 
z
" clip-path="url(#p05dd538713)" style="fill: #00875a; opacity: 0.88"/>
   </g>
   <g id="text_12">
    <text style="font-size: 10px; font-family: 'Arial', 'Helvetica', 'DejaVu Sans', sans-serif; text-anchor: middle; fill: #3c4043" x="190.3248" y="225.284716" transform="rotate(-0 190.3248 225.284716)">0.022</text>
   </g>
   <g id="text_13">
    <text style="font-size: 10px; font-family: 'Arial', 'Helvetica', 'DejaVu Sans', sans-serif; text-anchor: middle; fill: #3c4043" x="510.7248" y="185.87437" transform="rotate(-0 510.7248 185.87437)">0.031</text>
   </g>
   <g id="text_14">
    <text style="font-size: 10px; font-family: 'Arial', 'Helvetica', 'DejaVu Sans', sans-serif; text-anchor: middle; fill: #3c4043" x="831.1248" y="177.414613" transform="rotate(-0 831.1248 177.414613)">0.033</text>
   </g>
   <g id="text_15">
    <text style="font-size: 10px; font-family: 'Arial', 'Helvetica', 'DejaVu Sans', sans-serif; text-anchor: middle; fill: #3c4043" x="1151.5248" y="196.003587" transform="rotate(-0 1151.5248 196.003587)">0.029</text>
   </g>
   <g id="text_16">
    <text style="font-size: 10px; font-family: 'Arial', 'Helvetica', 'DejaVu Sans', sans-serif; text-anchor: middle; fill: #3c4043" x="236.4624" y="208.107837" transform="rotate(-0 236.4624 208.107837)">0.026</text>
   </g>
   <g id="text_17">
    <text style="font-size: 10px; font-family: 'Arial', 'Helvetica', 'DejaVu Sans', sans-serif; text-anchor: middle; fill: #3c4043" x="556.8624" y="170.871374" transform="rotate(-0 556.8624 170.871374)">0.034</text>
   </g>
   <g id="text_18">
    <text style="font-size: 10px; font-family: 'Arial', 'Helvetica', 'DejaVu Sans', sans-serif; text-anchor: middle; fill: #3c4043" x="877.2624" y="174.955826" transform="rotate(-0 877.2624 174.955826)">0.033</text>
   </g>
   <g id="text_19">
    <text style="font-size: 10px; font-family: 'Arial', 'Helvetica', 'DejaVu Sans', sans-serif; text-anchor: middle; fill: #3c4043" x="1197.6624" y="174.721854" transform="rotate(-0 1197.6624 174.721854)">0.033</text>
   </g>
   <g id="text_20">
    <text style="font-size: 10px; font-family: 'Arial', 'Helvetica', 'DejaVu Sans', sans-serif; text-anchor: middle; fill: #3c4043" x="282.6" y="192.675785" transform="rotate(-0 282.6 192.675785)">0.030</text>
   </g>
   <g id="text_21">
    <text style="font-size: 10px; font-family: 'Arial', 'Helvetica', 'DejaVu Sans', sans-serif; text-anchor: middle; fill: #3c4043" x="603" y="162.150988" transform="rotate(-0 603 162.150988)">0.037</text>
   </g>
   <g id="text_22">
    <text style="font-size: 10px; font-family: 'Arial', 'Helvetica', 'DejaVu Sans', sans-serif; text-anchor: middle; fill: #3c4043" x="923.4" y="148.98696" transform="rotate(-0 923.4 148.98696)">0.040</text>
   </g>
   <g id="text_23">
    <text style="font-size: 10px; font-family: 'Arial', 'Helvetica', 'DejaVu Sans', sans-serif; text-anchor: middle; fill: #3c4043" x="1243.8" y="166.799508" transform="rotate(-0 1243.8 166.799508)">0.036</text>
   </g>
   <g id="text_24">
    <text style="font-size: 10px; font-family: 'Arial', 'Helvetica', 'DejaVu Sans', sans-serif; text-anchor: middle; fill: #3c4043" x="328.7376" y="181.175266" transform="rotate(-0 328.7376 181.175266)">0.032</text>
   </g>
   <g id="text_25">
    <text style="font-size: 10px; font-family: 'Arial', 'Helvetica', 'DejaVu Sans', sans-serif; text-anchor: middle; fill: #3c4043" x="649.1376" y="178.53231" transform="rotate(-0 649.1376 178.53231)">0.032</text>
   </g>
   <g id="text_26">
    <text style="font-size: 10px; font-family: 'Arial', 'Helvetica', 'DejaVu Sans', sans-serif; text-anchor: middle; fill: #3c4043" x="969.5376" y="159.805476" transform="rotate(-0 969.5376 159.805476)">0.037</text>
   </g>
   <g id="text_27">
    <text style="font-size: 10px; font-family: 'Arial', 'Helvetica', 'DejaVu Sans', sans-serif; text-anchor: middle; fill: #3c4043" x="1289.9376" y="175.119749" transform="rotate(-0 1289.9376 175.119749)">0.033</text>
   </g>
   <g id="text_28">
    <text style="font-size: 10px; font-family: 'Arial', 'Helvetica', 'DejaVu Sans', sans-serif; text-anchor: middle; fill: #3c4043" x="374.8752" y="215.665338" transform="rotate(-0 374.8752 215.665338)">0.025</text>
   </g>
   <g id="text_29">
    <text style="font-size: 10px; font-family: 'Arial', 'Helvetica', 'DejaVu Sans', sans-serif; text-anchor: middle; fill: #3c4043" x="695.2752" y="156.01007" transform="rotate(-0 695.2752 156.01007)">0.038</text>
   </g>
   <g id="text_30">
    <text style="font-size: 10px; font-family: 'Arial', 'Helvetica', 'DejaVu Sans', sans-serif; text-anchor: middle; fill: #3c4043" x="1015.6752" y="156.537767" transform="rotate(-0 1015.6752 156.537767)">0.038</text>
   </g>
   <g id="text_31">
    <text style="font-size: 10px; font-family: 'Arial', 'Helvetica', 'DejaVu Sans', sans-serif; text-anchor: middle; fill: #3c4043" x="1336.0752" y="184.94906" transform="rotate(-0 1336.0752 184.94906)">0.032</text>
   </g>
   <g id="text_32">
    <text style="font-weight: 600; font-size: 17px; font-family: 'Arial', 'Helvetica', 'DejaVu Sans', sans-serif; text-anchor: middle; fill: #202124" x="763.2" y="97.62" transform="rotate(-0 763.2 97.62)">Forward velocity RMSE [m/s]</text>
   </g>
  </g>
  <g id="axes_2">
   <g id="patch_23">
    <path d="M 122.4 642.6 
L 1404 642.6 
L 1404 423.266667 
L 122.4 423.266667 
z
" style="fill: #ffffff"/>
   </g>
   <g id="matplotlib.axis_3">
    <g id="xtick_5">
     <g id="line2d_18"/>
     <g id="text_33">
      <text style="font-size: 12px; font-family: 'Arial', 'Helvetica', 'DejaVu Sans', sans-serif; text-anchor: middle; fill: #3c4043" x="282.6" y="654.689375" transform="rotate(-0 282.6 654.689375)">Trot</text>
     </g>
    </g>
    <g id="xtick_6">
     <g id="line2d_19"/>
     <g id="text_34">
      <text style="font-size: 12px; font-family: 'Arial', 'Helvetica', 'DejaVu Sans', sans-serif; text-anchor: middle; fill: #3c4043" x="603" y="654.689375" transform="rotate(-0 603 654.689375)">Bound</text>
     </g>
    </g>
    <g id="xtick_7">
     <g id="line2d_20"/>
     <g id="text_35">
      <text style="font-size: 12px; font-family: 'Arial', 'Helvetica', 'DejaVu Sans', sans-serif; text-anchor: middle; fill: #3c4043" x="923.4" y="654.689375" transform="rotate(-0 923.4 654.689375)">Half-bound</text>
     </g>
    </g>
    <g id="xtick_8">
     <g id="line2d_21"/>
     <g id="text_36">
      <text style="font-size: 12px; font-family: 'Arial', 'Helvetica', 'DejaVu Sans', sans-serif; text-anchor: middle; fill: #3c4043" x="1243.8" y="654.835625" transform="rotate(-0 1243.8 654.835625)">Gallop</text>
     </g>
    </g>
   </g>
   <g id="matplotlib.axis_4">
    <g id="ytick_7">
     <g id="line2d_22">
      <path d="M 122.4 642.6 
L 1404 642.6 
" clip-path="url(#pf0f59e9ce7)" style="fill: none; stroke: #e2e5e9; stroke-linecap: square"/>
     </g>
     <g id="line2d_23"/>
     <g id="text_37">
      <text style="font-size: 12px; font-family: 'Arial', 'Helvetica', 'DejaVu Sans', sans-serif; text-anchor: end; fill: #5f6368" x="118.9" y="646.894687" transform="rotate(-0 118.9 646.894687)">0.000</text>
     </g>
    </g>
    <g id="ytick_8">
     <g id="line2d_24">
      <path d="M 122.4 587.766667 
L 1404 587.766667 
" clip-path="url(#pf0f59e9ce7)" style="fill: none; stroke: #e2e5e9; stroke-linecap: square"/>
     </g>
     <g id="line2d_25"/>
     <g id="text_38">
      <text style="font-size: 12px; font-family: 'Arial', 'Helvetica', 'DejaVu Sans', sans-serif; text-anchor: end; fill: #5f6368" x="118.9" y="592.061354" transform="rotate(-0 118.9 592.061354)">0.015</text>
     </g>
    </g>
    <g id="ytick_9">
     <g id="line2d_26">
      <path d="M 122.4 532.933333 
L 1404 532.933333 
" clip-path="url(#pf0f59e9ce7)" style="fill: none; stroke: #e2e5e9; stroke-linecap: square"/>
     </g>
     <g id="line2d_27"/>
     <g id="text_39">
      <text style="font-size: 12px; font-family: 'Arial', 'Helvetica', 'DejaVu Sans', sans-serif; text-anchor: end; fill: #5f6368" x="118.9" y="537.228021" transform="rotate(-0 118.9 537.228021)">0.030</text>
     </g>
    </g>
    <g id="ytick_10">
     <g id="line2d_28">
      <path d="M 122.4 478.1 
L 1404 478.1 
" clip-path="url(#pf0f59e9ce7)" style="fill: none; stroke: #e2e5e9; stroke-linecap: square"/>
     </g>
     <g id="line2d_29"/>
     <g id="text_40">
      <text style="font-size: 12px; font-family: 'Arial', 'Helvetica', 'DejaVu Sans', sans-serif; text-anchor: end; fill: #5f6368" x="118.9" y="482.394687" transform="rotate(-0 118.9 482.394687)">0.045</text>
     </g>
    </g>
    <g id="ytick_11">
     <g id="line2d_30">
      <path d="M 122.4 423.266667 
L 1404 423.266667 
" clip-path="url(#pf0f59e9ce7)" style="fill: none; stroke: #e2e5e9; stroke-linecap: square"/>
     </g>
     <g id="line2d_31"/>
     <g id="text_41">
      <text style="font-size: 12px; font-family: 'Arial', 'Helvetica', 'DejaVu Sans', sans-serif; text-anchor: end; fill: #5f6368" x="118.9" y="427.561354" transform="rotate(-0 118.9 427.561354)">0.060</text>
     </g>
    </g>
    <g id="text_42">
     <text style="font-size: 14px; font-family: 'Arial', 'Helvetica', 'DejaVu Sans', sans-serif; text-anchor: middle; fill: #202124" x="69.927188" y="532.933333" transform="rotate(-90 69.927188 532.933333)">Yaw-velocity RMSE [rad/s]</text>
    </g>
   </g>
   <g id="line2d_32">
    <path d="M 122.4 642.6 
L 1404 642.6 
" clip-path="url(#pf0f59e9ce7)" style="fill: none; stroke: #9aa0a6; stroke-width: 1.5; stroke-linecap: square"/>
   </g>
   <g id="patch_24">
    <path d="M 169.101504 642.6 
L 211.548096 642.6 
L 211.548096 570.494245 
L 169.101504 570.494245 
z
" clip-path="url(#pf0f59e9ce7)" style="fill: #202124; opacity: 0.88"/>
   </g>
   <g id="patch_25">
    <path d="M 489.501504 642.6 
L 531.948096 642.6 
L 531.948096 555.303082 
L 489.501504 555.303082 
z
" clip-path="url(#pf0f59e9ce7)" style="fill: #202124; opacity: 0.88"/>
   </g>
   <g id="patch_26">
    <path d="M 809.901504 642.6 
L 852.348096 642.6 
L 852.348096 493.039804 
L 809.901504 493.039804 
z
" clip-path="url(#pf0f59e9ce7)" style="fill: #202124; opacity: 0.88"/>
   </g>
   <g id="patch_27">
    <path d="M 1130.301504 642.6 
L 1172.748096 642.6 
L 1172.748096 451.60616 
L 1130.301504 451.60616 
z
" clip-path="url(#pf0f59e9ce7)" style="fill: #202124; opacity: 0.88"/>
   </g>
   <g id="patch_28">
    <path d="M 215.239104 642.6 
L 257.685696 642.6 
L 257.685696 533.929039 
L 215.239104 533.929039 
z
" clip-path="url(#pf0f59e9ce7)" style="fill: #0072b2; opacity: 0.88"/>
   </g>
   <g id="patch_29">
    <path d="M 535.639104 642.6 
L 578.085696 642.6 
L 578.085696 515.206244 
L 535.639104 515.206244 
z
" clip-path="url(#pf0f59e9ce7)" style="fill: #0072b2; opacity: 0.88"/>
   </g>
   <g id="patch_30">
    <path d="M 856.039104 642.6 
L 898.485696 642.6 
L 898.485696 490.36287 
L 856.039104 490.36287 
z
" clip-path="url(#pf0f59e9ce7)" style="fill: #0072b2; opacity: 0.88"/>
   </g>
   <g id="patch_31">
    <path d="M 1176.439104 642.6 
L 1218.885696 642.6 
L 1218.885696 485.904126 
L 1176.439104 485.904126 
z
" clip-path="url(#pf0f59e9ce7)" style="fill: #0072b2; opacity: 0.88"/>
   </g>
   <g id="patch_32">
    <path d="M 261.376704 642.6 
L 303.823296 642.6 
L 303.823296 573.93555 
L 261.376704 573.93555 
z
" clip-path="url(#pf0f59e9ce7)" style="fill: #56b4e9; opacity: 0.88"/>
   </g>
   <g id="patch_33">
    <path d="M 581.776704 642.6 
L 624.223296 642.6 
L 624.223296 560.297128 
L 581.776704 560.297128 
z
" clip-path="url(#pf0f59e9ce7)" style="fill: #56b4e9; opacity: 0.88"/>
   </g>
   <g id="patch_34">
    <path d="M 902.176704 642.6 
L 944.623296 642.6 
L 944.623296 510.722953 
L 902.176704 510.722953 
z
" clip-path="url(#pf0f59e9ce7)" style="fill: #56b4e9; opacity: 0.88"/>
   </g>
   <g id="patch_35">
    <path d="M 1222.576704 642.6 
L 1265.023296 642.6 
L 1265.023296 486.821623 
L 1222.576704 486.821623 
z
" clip-path="url(#pf0f59e9ce7)" style="fill: #56b4e9; opacity: 0.88"/>
   </g>
   <g id="patch_36">
    <path d="M 307.514304 642.6 
L 349.960896 642.6 
L 349.960896 574.509509 
L 307.514304 574.509509 
z
" clip-path="url(#pf0f59e9ce7)" style="fill: #d97706; opacity: 0.88"/>
   </g>
   <g id="patch_37">
    <path d="M 627.914304 642.6 
L 670.360896 642.6 
L 670.360896 573.705603 
L 627.914304 573.705603 
z
" clip-path="url(#pf0f59e9ce7)" style="fill: #d97706; opacity: 0.88"/>
   </g>
   <g id="patch_38">
    <path d="M 948.314304 642.6 
L 990.760896 642.6 
L 990.760896 499.413711 
L 948.314304 499.413711 
z
" clip-path="url(#pf0f59e9ce7)" style="fill: #d97706; opacity: 0.88"/>
   </g>
   <g id="patch_39">
    <path d="M 1268.714304 642.6 
L 1311.160896 642.6 
L 1311.160896 476.02361 
L 1268.714304 476.02361 
z
" clip-path="url(#pf0f59e9ce7)" style="fill: #d97706; opacity: 0.88"/>
   </g>
   <g id="patch_40">
    <path d="M 353.651904 642.6 
L 396.098496 642.6 
L 396.098496 521.180656 
L 353.651904 521.180656 
z
" clip-path="url(#pf0f59e9ce7)" style="fill: #00875a; opacity: 0.88"/>
   </g>
   <g id="patch_41">
    <path d="M 674.051904 642.6 
L 716.498496 642.6 
L 716.498496 566.498101 
L 674.051904 566.498101 
z
" clip-path="url(#pf0f59e9ce7)" style="fill: #00875a; opacity: 0.88"/>
   </g>
   <g id="patch_42">
    <path d="M 994.451904 642.6 
L 1036.898496 642.6 
L 1036.898496 481.079852 
L 994.451904 481.079852 
z
" clip-path="url(#pf0f59e9ce7)" style="fill: #00875a; opacity: 0.88"/>
   </g>
   <g id="patch_43">
    <path d="M 1314.851904 642.6 
L 1357.298496 642.6 
L 1357.298496 456.871255 
L 1314.851904 456.871255 
z
" clip-path="url(#pf0f59e9ce7)" style="fill: #00875a; opacity: 0.88"/>
   </g>
   <g id="text_43">
    <text style="font-size: 10px; font-family: 'Arial', 'Helvetica', 'DejaVu Sans', sans-serif; text-anchor: middle; fill: #3c4043" x="190.3248" y="565.436078" transform="rotate(-0 190.3248 565.436078)">0.020</text>
   </g>
   <g id="text_44">
    <text style="font-size: 10px; font-family: 'Arial', 'Helvetica', 'DejaVu Sans', sans-serif; text-anchor: middle; fill: #3c4043" x="510.7248" y="550.244915" transform="rotate(-0 510.7248 550.244915)">0.024</text>
   </g>
   <g id="text_45">
    <text style="font-size: 10px; font-family: 'Arial', 'Helvetica', 'DejaVu Sans', sans-serif; text-anchor: middle; fill: #3c4043" x="831.1248" y="487.981637" transform="rotate(-0 831.1248 487.981637)">0.041</text>
   </g>
   <g id="text_46">
    <text style="font-size: 10px; font-family: 'Arial', 'Helvetica', 'DejaVu Sans', sans-serif; text-anchor: middle; fill: #3c4043" x="1151.5248" y="446.547993" transform="rotate(-0 1151.5248 446.547993)">0.052</text>
   </g>
   <g id="text_47">
    <text style="font-size: 10px; font-family: 'Arial', 'Helvetica', 'DejaVu Sans', sans-serif; text-anchor: middle; fill: #3c4043" x="236.4624" y="526.019539" transform="rotate(-0 236.4624 526.019539)">0.030</text>
   </g>
   <g id="text_48">
    <text style="font-size: 10px; font-family: 'Arial', 'Helvetica', 'DejaVu Sans', sans-serif; text-anchor: middle; fill: #3c4043" x="556.8624" y="507.296744" transform="rotate(-0 556.8624 507.296744)">0.035</text>
   </g>
   <g id="text_49">
    <text style="font-size: 10px; font-family: 'Arial', 'Helvetica', 'DejaVu Sans', sans-serif; text-anchor: middle; fill: #3c4043" x="877.2624" y="482.45337" transform="rotate(-0 877.2624 482.45337)">0.042</text>
   </g>
   <g id="text_50">
    <text style="font-size: 10px; font-family: 'Arial', 'Helvetica', 'DejaVu Sans', sans-serif; text-anchor: middle; fill: #3c4043" x="1197.6624" y="477.994626" transform="rotate(-0 1197.6624 477.994626)">0.043</text>
   </g>
   <g id="text_51">
    <text style="font-size: 10px; font-family: 'Arial', 'Helvetica', 'DejaVu Sans', sans-serif; text-anchor: middle; fill: #3c4043" x="282.6" y="568.877384" transform="rotate(-0 282.6 568.877384)">0.019</text>
   </g>
   <g id="text_52">
    <text style="font-size: 10px; font-family: 'Arial', 'Helvetica', 'DejaVu Sans', sans-serif; text-anchor: middle; fill: #3c4043" x="603" y="555.238962" transform="rotate(-0 603 555.238962)">0.023</text>
   </g>
   <g id="text_53">
    <text style="font-size: 10px; font-family: 'Arial', 'Helvetica', 'DejaVu Sans', sans-serif; text-anchor: middle; fill: #3c4043" x="923.4" y="505.664786" transform="rotate(-0 923.4 505.664786)">0.036</text>
   </g>
   <g id="text_54">
    <text style="font-size: 10px; font-family: 'Arial', 'Helvetica', 'DejaVu Sans', sans-serif; text-anchor: middle; fill: #3c4043" x="1243.8" y="481.763456" transform="rotate(-0 1243.8 481.763456)">0.043</text>
   </g>
   <g id="text_55">
    <text style="font-size: 10px; font-family: 'Arial', 'Helvetica', 'DejaVu Sans', sans-serif; text-anchor: middle; fill: #3c4043" x="328.7376" y="566.600009" transform="rotate(-0 328.7376 566.600009)">0.019</text>
   </g>
   <g id="text_56">
    <text style="font-size: 10px; font-family: 'Arial', 'Helvetica', 'DejaVu Sans', sans-serif; text-anchor: middle; fill: #3c4043" x="649.1376" y="565.796103" transform="rotate(-0 649.1376 565.796103)">0.019</text>
   </g>
   <g id="text_57">
    <text style="font-size: 10px; font-family: 'Arial', 'Helvetica', 'DejaVu Sans', sans-serif; text-anchor: middle; fill: #3c4043" x="969.5376" y="491.504211" transform="rotate(-0 969.5376 491.504211)">0.039</text>
   </g>
   <g id="text_58">
    <text style="font-size: 10px; font-family: 'Arial', 'Helvetica', 'DejaVu Sans', sans-serif; text-anchor: middle; fill: #3c4043" x="1289.9376" y="468.11411" transform="rotate(-0 1289.9376 468.11411)">0.046</text>
   </g>
   <g id="text_59">
    <text style="font-size: 10px; font-family: 'Arial', 'Helvetica', 'DejaVu Sans', sans-serif; text-anchor: middle; fill: #3c4043" x="374.8752" y="516.122489" transform="rotate(-0 374.8752 516.122489)">0.033</text>
   </g>
   <g id="text_60">
    <text style="font-size: 10px; font-family: 'Arial', 'Helvetica', 'DejaVu Sans', sans-serif; text-anchor: middle; fill: #3c4043" x="695.2752" y="561.439934" transform="rotate(-0 695.2752 561.439934)">0.021</text>
   </g>
   <g id="text_61">
    <text style="font-size: 10px; font-family: 'Arial', 'Helvetica', 'DejaVu Sans', sans-serif; text-anchor: middle; fill: #3c4043" x="1015.6752" y="476.021685" transform="rotate(-0 1015.6752 476.021685)">0.044</text>
   </g>
   <g id="text_62">
    <text style="font-size: 10px; font-family: 'Arial', 'Helvetica', 'DejaVu Sans', sans-serif; text-anchor: middle; fill: #3c4043" x="1336.0752" y="451.813089" transform="rotate(-0 1336.0752 451.813089)">0.051</text>
   </g>
   <g id="text_63">
    <text style="font-weight: 600; font-size: 17px; font-family: 'Arial', 'Helvetica', 'DejaVu Sans', sans-serif; text-anchor: middle; fill: #202124" x="763.2" y="411.266667" transform="rotate(-0 763.2 411.266667)">Yaw-velocity RMSE [rad/s]</text>
   </g>
  </g>
  <g id="text_64">
   <text style="font-weight: 600; font-size: 24px; font-family: 'Arial', 'Helvetica', 'DejaVu Sans', sans-serif; text-anchor: middle; fill: #202124" x="720" y="31.07925" transform="rotate(-0 720 31.07925)">Fig. 3.3 · Dobot X1: velocity tracking by gait family</text>
  </g>
  <g id="text_65">
   <text style="font-size: 13px; font-family: 'Arial', 'Helvetica', 'DejaVu Sans', sans-serif; text-anchor: middle; fill: #5f6368" x="720" y="59.071594" transform="rotate(-0 720 59.071594)">Positive velocities · lower is better · each family is reported independently</text>
  </g>
  <g id="legend_1">
   <g id="patch_44">
    <path d="M 473.490937 729.066375 
L 495.090937 729.066375 
L 495.090937 720.666375 
L 473.490937 720.666375 
z
" style="fill: #202124; opacity: 0.88"/>
   </g>
   <g id="text_66">
    <text style="font-size: 12px; font-family: 'Arial', 'Helvetica', 'DejaVu Sans', sans-serif; text-anchor: start; fill: #202124" x="504.690937" y="729.066375" transform="rotate(-0 504.690937 729.066375)">NoTRS</text>
   </g>
   <g id="patch_45">
    <path d="M 570.430313 729.066375 
L 592.030313 729.066375 
L 592.030313 720.666375 
L 570.430313 720.666375 
z
" style="fill: #0072b2; opacity: 0.88"/>
   </g>
   <g id="text_67">
    <text style="font-size: 12px; font-family: 'Arial', 'Helvetica', 'DejaVu Sans', sans-serif; text-anchor: start; fill: #202124" x="601.630313" y="729.066375" transform="rotate(-0 601.630313 729.066375)">Low-r0</text>
   </g>
   <g id="patch_46">
    <path d="M 664.707188 729.066375 
L 686.307188 729.066375 
L 686.307188 720.666375 
L 664.707188 720.666375 
z
" style="fill: #56b4e9; opacity: 0.88"/>
   </g>
   <g id="text_68">
    <text style="font-size: 12px; font-family: 'Arial', 'Helvetica', 'DejaVu Sans', sans-serif; text-anchor: start; fill: #202124" x="695.907188" y="729.066375" transform="rotate(-0 695.907188 729.066375)">Low-r1000</text>
   </g>
   <g id="patch_47">
    <path d="M 779.003438 729.066375 
L 800.603438 729.066375 
L 800.603438 720.666375 
L 779.003438 720.666375 
z
" style="fill: #d97706; opacity: 0.88"/>
   </g>
   <g id="text_69">
    <text style="font-size: 12px; font-family: 'Arial', 'Helvetica', 'DejaVu Sans', sans-serif; text-anchor: start; fill: #202124" x="810.203438" y="729.066375" transform="rotate(-0 810.203438 729.066375)">High-r0</text>
   </g>
   <g id="patch_48">
    <path d="M 875.946563 729.066375 
L 897.546563 729.066375 
L 897.546563 720.666375 
L 875.946563 720.666375 
z
" style="fill: #00875a; opacity: 0.88"/>
   </g>
   <g id="text_70">
    <text style="font-size: 12px; font-family: 'Arial', 'Helvetica', 'DejaVu Sans', sans-serif; text-anchor: start; fill: #202124" x="907.146563" y="729.066375" transform="rotate(-0 907.146563 729.066375)">High-r1000</text>
   </g>
  </g>
 </g>
 <defs>
  <clipPath id="p05dd538713">
   <rect x="122.4" y="109.62" width="1281.6" height="219.333333"/>
  </clipPath>
  <clipPath id="pf0f59e9ce7">
   <rect x="122.4" y="423.266667" width="1281.6" height="219.333333"/>
  </clipPath>
 </defs>
</svg>
