<?xml version="1.0" encoding="utf-8" standalone="no"?>
<!DOCTYPE svg PUBLIC "-//W3C//DTD SVG 1.1//EN"
  "http://www.w3.org/Graphics/SVG/1.1/DTD/svg11.dtd">
<svg xmlns:xlink="http://www.w3.org/1999/xlink" width="1440pt" height="576pt" viewBox="0 0 1440 576" xmlns="http://www.w3.org/2000/svg" version="1.1">
 <metadata>
  <rdf:RDF xmlns:dc="http://purl.org/dc/elements/1.1/" xmlns:cc="http://creativecommons.org/ns#" xmlns:rdf="http://www.w3.org/1999/02/22-rdf-syntax-ns#">
   <cc:Work>
    <dc:type rdf:resource="http://purl.org/dc/dcmitype/StillImage"/>
    <dc:format>image/svg+xml</dc:format>
    <dc:creator>
     <cc:Agent>
      <dc:title>IsaacLab gait-closure comparison</dc:title>
     </cc:Agent>
    </dc:creator>
   </cc:Work>
  </rdf:RDF>
 </metadata>
 <defs>
  <style type="text/css">*{stroke-linejoin: round; stroke-linecap: butt}</style>
 </defs>
 <g id="figure_1">
  <g id="patch_1">
   <path d="M 0 576 
L 1440 576 
L 1440 0 
L 0 0 
z
" style="fill: #ffffff"/>
  </g>
  <g id="axes_1">
   <g id="patch_2">
    <path d="M 108 460.8 
L 1404 460.8 
L 1404 103.68 
L 108 103.68 
z
" style="fill: #ffffff"/>
   </g>
   <g id="matplotlib.axis_1">
    <g id="xtick_1">
     <g id="line2d_1"/>
     <g id="text_1">
      <text style="font-size: 12px; font-family: 'Arial', 'Helvetica', 'DejaVu Sans', sans-serif; text-anchor: middle; fill: #3c4043" x="270" y="472.889375" transform="rotate(-0 270 472.889375)">Trot</text>
     </g>
    </g>
    <g id="xtick_2">
     <g id="line2d_2"/>
     <g id="text_2">
      <text style="font-size: 12px; font-family: 'Arial', 'Helvetica', 'DejaVu Sans', sans-serif; text-anchor: middle; fill: #3c4043" x="594" y="472.889375" transform="rotate(-0 594 472.889375)">Bound</text>
     </g>
    </g>
    <g id="xtick_3">
     <g id="line2d_3"/>
     <g id="text_3">
      <text style="font-size: 12px; font-family: 'Arial', 'Helvetica', 'DejaVu Sans', sans-serif; text-anchor: middle; fill: #3c4043" x="918" y="472.889375" transform="rotate(-0 918 472.889375)">Half-bound</text>
     </g>
    </g>
    <g id="xtick_4">
     <g id="line2d_4"/>
     <g id="text_4">
      <text style="font-size: 12px; font-family: 'Arial', 'Helvetica', 'DejaVu Sans', sans-serif; text-anchor: middle; fill: #3c4043" x="1242" y="473.035625" transform="rotate(-0 1242 473.035625)">Gallop</text>
     </g>
    </g>
   </g>
   <g id="matplotlib.axis_2">
    <g id="ytick_1">
     <g id="line2d_5">
      <path d="M 108 460.8 
L 1404 460.8 
" clip-path="url(#pfe84234a60)" style="fill: none; stroke: #e2e5e9; stroke-linecap: square"/>
     </g>
     <g id="line2d_6"/>
     <g id="text_5">
      <text style="font-size: 12px; font-family: 'Arial', 'Helvetica', 'DejaVu Sans', sans-serif; text-anchor: end; fill: #5f6368" x="104.5" y="465.094687" transform="rotate(-0 104.5 465.094687)">0</text>
     </g>
    </g>
    <g id="ytick_2">
     <g id="line2d_7">
      <path d="M 108 389.376 
L 1404 389.376 
" clip-path="url(#pfe84234a60)" style="fill: none; stroke: #e2e5e9; stroke-linecap: square"/>
     </g>
     <g id="line2d_8"/>
     <g id="text_6">
      <text style="font-size: 12px; font-family: 'Arial', 'Helvetica', 'DejaVu Sans', sans-serif; text-anchor: end; fill: #5f6368" x="104.5" y="393.670687" transform="rotate(-0 104.5 393.670687)">20</text>
     </g>
    </g>
    <g id="ytick_3">
     <g id="line2d_9">
      <path d="M 108 317.952 
L 1404 317.952 
" clip-path="url(#pfe84234a60)" style="fill: none; stroke: #e2e5e9; stroke-linecap: square"/>
     </g>
     <g id="line2d_10"/>
     <g id="text_7">
      <text style="font-size: 12px; font-family: 'Arial', 'Helvetica', 'DejaVu Sans', sans-serif; text-anchor: end; fill: #5f6368" x="104.5" y="322.246688" transform="rotate(-0 104.5 322.246688)">40</text>
     </g>
    </g>
    <g id="ytick_4">
     <g id="line2d_11">
      <path d="M 108 246.528 
L 1404 246.528 
" clip-path="url(#pfe84234a60)" style="fill: none; stroke: #e2e5e9; stroke-linecap: square"/>
     </g>
     <g id="line2d_12"/>
     <g id="text_8">
      <text style="font-size: 12px; font-family: 'Arial', 'Helvetica', 'DejaVu Sans', sans-serif; text-anchor: end; fill: #5f6368" x="104.5" y="250.822687" transform="rotate(-0 104.5 250.822687)">60</text>
     </g>
    </g>
    <g id="ytick_5">
     <g id="line2d_13">
      <path d="M 108 175.104 
L 1404 175.104 
" clip-path="url(#pfe84234a60)" style="fill: none; stroke: #e2e5e9; stroke-linecap: square"/>
     </g>
     <g id="line2d_14"/>
     <g id="text_9">
      <text style="font-size: 12px; font-family: 'Arial', 'Helvetica', 'DejaVu Sans', sans-serif; text-anchor: end; fill: #5f6368" x="104.5" y="179.398687" transform="rotate(-0 104.5 179.398687)">80</text>
     </g>
    </g>
    <g id="ytick_6">
     <g id="line2d_15">
      <path d="M 108 103.68 
L 1404 103.68 
" clip-path="url(#pfe84234a60)" style="fill: none; stroke: #e2e5e9; stroke-linecap: square"/>
     </g>
     <g id="line2d_16"/>
     <g id="text_10">
      <text style="font-size: 12px; font-family: 'Arial', 'Helvetica', 'DejaVu Sans', sans-serif; text-anchor: end; fill: #5f6368" x="104.5" y="107.974688" transform="rotate(-0 104.5 107.974688)">100</text>
     </g>
    </g>
    <g id="text_11">
     <text style="font-size: 14px; font-family: 'Arial', 'Helvetica', 'DejaVu Sans', sans-serif; text-anchor: middle; fill: #202124" x="65.534063" y="282.24" transform="rotate(-90 65.534063 282.24)">Gait agreement [%]</text>
    </g>
   </g>
   <g id="line2d_17">
    <path d="M 108 460.8 
L 1404 460.8 
" clip-path="url(#pfe84234a60)" style="fill: none; stroke: #9aa0a6; stroke-width: 1.5; stroke-linecap: square"/>
   </g>
   <g id="patch_3">
    <path d="M 155.22624 460.8 
L 198.14976 460.8 
L 198.14976 141.431598 
L 155.22624 141.431598 
z
" clip-path="url(#pfe84234a60)" style="fill: #202124; opacity: 0.88"/>
   </g>
   <g id="patch_4">
    <path d="M 479.22624 460.8 
L 522.14976 460.8 
L 522.14976 140.164688 
L 479.22624 140.164688 
z
" clip-path="url(#pfe84234a60)" style="fill: #202124; opacity: 0.88"/>
   </g>
   <g id="patch_5">
    <path d="M 803.22624 460.8 
L 846.14976 460.8 
L 846.14976 145.797038 
L 803.22624 145.797038 
z
" clip-path="url(#pfe84234a60)" style="fill: #202124; opacity: 0.88"/>
   </g>
   <g id="patch_6">
    <path d="M 1127.22624 460.8 
L 1170.14976 460.8 
L 1170.14976 147.276667 
L 1127.22624 147.276667 
z
" clip-path="url(#pfe84234a60)" style="fill: #202124; opacity: 0.88"/>
   </g>
   <g id="patch_7">
    <path d="M 201.88224 460.8 
L 244.80576 460.8 
L 244.80576 154.829662 
L 201.88224 154.829662 
z
" clip-path="url(#pfe84234a60)" style="fill: #0072b2; opacity: 0.88"/>
   </g>
   <g id="patch_8">
    <path d="M 525.88224 460.8 
L 568.80576 460.8 
L 568.80576 138.065977 
L 525.88224 138.065977 
z
" clip-path="url(#pfe84234a60)" style="fill: #0072b2; opacity: 0.88"/>
   </g>
   <g id="patch_9">
    <path d="M 849.88224 460.8 
L 892.80576 460.8 
L 892.80576 155.330785 
L 849.88224 155.330785 
z
" clip-path="url(#pfe84234a60)" style="fill: #0072b2; opacity: 0.88"/>
   </g>
   <g id="patch_10">
    <path d="M 1173.88224 460.8 
L 1216.80576 460.8 
L 1216.80576 158.310064 
L 1173.88224 158.310064 
z
" clip-path="url(#pfe84234a60)" style="fill: #0072b2; opacity: 0.88"/>
   </g>
   <g id="patch_11">
    <path d="M 248.53824 460.8 
L 291.46176 460.8 
L 291.46176 149.820337 
L 248.53824 149.820337 
z
" clip-path="url(#pfe84234a60)" style="fill: #56b4e9; opacity: 0.88"/>
   </g>
   <g id="patch_12">
    <path d="M 572.53824 460.8 
L 615.46176 460.8 
L 615.46176 137.957209 
L 572.53824 137.957209 
z
" clip-path="url(#pfe84234a60)" style="fill: #56b4e9; opacity: 0.88"/>
   </g>
   <g id="patch_13">
    <path d="M 896.53824 460.8 
L 939.46176 460.8 
L 939.46176 150.985008 
L 896.53824 150.985008 
z
" clip-path="url(#pfe84234a60)" style="fill: #56b4e9; opacity: 0.88"/>
   </g>
   <g id="patch_14">
    <path d="M 1220.53824 460.8 
L 1263.46176 460.8 
L 1263.46176 155.4079 
L 1220.53824 155.4079 
z
" clip-path="url(#pfe84234a60)" style="fill: #56b4e9; opacity: 0.88"/>
   </g>
   <g id="patch_15">
    <path d="M 295.19424 460.8 
L 338.11776 460.8 
L 338.11776 155.870789 
L 295.19424 155.870789 
z
" clip-path="url(#pfe84234a60)" style="fill: #d97706; opacity: 0.88"/>
   </g>
   <g id="patch_16">
    <path d="M 619.19424 460.8 
L 662.11776 460.8 
L 662.11776 137.960374 
L 619.19424 137.960374 
z
" clip-path="url(#pfe84234a60)" style="fill: #d97706; opacity: 0.88"/>
   </g>
   <g id="patch_17">
    <path d="M 943.19424 460.8 
L 986.11776 460.8 
L 986.11776 152.680436 
L 943.19424 152.680436 
z
" clip-path="url(#pfe84234a60)" style="fill: #d97706; opacity: 0.88"/>
   </g>
   <g id="patch_18">
    <path d="M 1267.19424 460.8 
L 1310.11776 460.8 
L 1310.11776 159.243391 
L 1267.19424 159.243391 
z
" clip-path="url(#pfe84234a60)" style="fill: #d97706; opacity: 0.88"/>
   </g>
   <g id="patch_19">
    <path d="M 341.85024 460.8 
L 384.77376 460.8 
L 384.77376 155.510707 
L 341.85024 155.510707 
z
" clip-path="url(#pfe84234a60)" style="fill: #00875a; opacity: 0.88"/>
   </g>
   <g id="patch_20">
    <path d="M 665.85024 460.8 
L 708.77376 460.8 
L 708.77376 135.653019 
L 665.85024 135.653019 
z
" clip-path="url(#pfe84234a60)" style="fill: #00875a; opacity: 0.88"/>
   </g>
   <g id="patch_21">
    <path d="M 989.85024 460.8 
L 1032.77376 460.8 
L 1032.77376 146.82954 
L 989.85024 146.82954 
z
" clip-path="url(#pfe84234a60)" style="fill: #00875a; opacity: 0.88"/>
   </g>
   <g id="patch_22">
    <path d="M 1313.85024 460.8 
L 1356.77376 460.8 
L 1356.77376 150.652916 
L 1313.85024 150.652916 
z
" clip-path="url(#pfe84234a60)" style="fill: #00875a; opacity: 0.88"/>
   </g>
   <g id="text_12">
    <text style="font-size: 10px; font-family: 'Arial', 'Helvetica', 'DejaVu Sans', sans-serif; text-anchor: middle; fill: #3c4043" x="176.688" y="134.444418" transform="rotate(-0 176.688 134.444418)">89.4</text>
   </g>
   <g id="text_13">
    <text style="font-size: 10px; font-family: 'Arial', 'Helvetica', 'DejaVu Sans', sans-serif; text-anchor: middle; fill: #3c4043" x="500.688" y="133.177508" transform="rotate(-0 500.688 133.177508)">89.8</text>
   </g>
   <g id="text_14">
    <text style="font-size: 10px; font-family: 'Arial', 'Helvetica', 'DejaVu Sans', sans-serif; text-anchor: middle; fill: #3c4043" x="824.688" y="138.809858" transform="rotate(-0 824.688 138.809858)">88.2</text>
   </g>
   <g id="text_15">
    <text style="font-size: 10px; font-family: 'Arial', 'Helvetica', 'DejaVu Sans', sans-serif; text-anchor: middle; fill: #3c4043" x="1148.688" y="140.289487" transform="rotate(-0 1148.688 140.289487)">87.8</text>
   </g>
   <g id="text_16">
    <text style="font-size: 10px; font-family: 'Arial', 'Helvetica', 'DejaVu Sans', sans-serif; text-anchor: middle; fill: #3c4043" x="223.344" y="143.199922" transform="rotate(-0 223.344 143.199922)">85.7</text>
   </g>
   <g id="text_17">
    <text style="font-size: 10px; font-family: 'Arial', 'Helvetica', 'DejaVu Sans', sans-serif; text-anchor: middle; fill: #3c4043" x="547.344" y="126.436237" transform="rotate(-0 547.344 126.436237)">90.4</text>
   </g>
   <g id="text_18">
    <text style="font-size: 10px; font-family: 'Arial', 'Helvetica', 'DejaVu Sans', sans-serif; text-anchor: middle; fill: #3c4043" x="871.344" y="143.701045" transform="rotate(-0 871.344 143.701045)">85.5</text>
   </g>
   <g id="text_19">
    <text style="font-size: 10px; font-family: 'Arial', 'Helvetica', 'DejaVu Sans', sans-serif; text-anchor: middle; fill: #3c4043" x="1195.344" y="146.680324" transform="rotate(-0 1195.344 146.680324)">84.7</text>
   </g>
   <g id="text_20">
    <text style="font-size: 10px; font-family: 'Arial', 'Helvetica', 'DejaVu Sans', sans-serif; text-anchor: middle; fill: #3c4043" x="270" y="142.833157" transform="rotate(-0 270 142.833157)">87.1</text>
   </g>
   <g id="text_21">
    <text style="font-size: 10px; font-family: 'Arial', 'Helvetica', 'DejaVu Sans', sans-serif; text-anchor: middle; fill: #3c4043" x="594" y="130.970029" transform="rotate(-0 594 130.970029)">90.4</text>
   </g>
   <g id="text_22">
    <text style="font-size: 10px; font-family: 'Arial', 'Helvetica', 'DejaVu Sans', sans-serif; text-anchor: middle; fill: #3c4043" x="918" y="143.997828" transform="rotate(-0 918 143.997828)">86.8</text>
   </g>
   <g id="text_23">
    <text style="font-size: 10px; font-family: 'Arial', 'Helvetica', 'DejaVu Sans', sans-serif; text-anchor: middle; fill: #3c4043" x="1242" y="148.42072" transform="rotate(-0 1242 148.42072)">85.5</text>
   </g>
   <g id="text_24">
    <text style="font-size: 10px; font-family: 'Arial', 'Helvetica', 'DejaVu Sans', sans-serif; text-anchor: middle; fill: #3c4043" x="316.656" y="144.241049" transform="rotate(-0 316.656 144.241049)">85.4</text>
   </g>
   <g id="text_25">
    <text style="font-size: 10px; font-family: 'Arial', 'Helvetica', 'DejaVu Sans', sans-serif; text-anchor: middle; fill: #3c4043" x="640.656" y="126.330634" transform="rotate(-0 640.656 126.330634)">90.4</text>
   </g>
   <g id="text_26">
    <text style="font-size: 10px; font-family: 'Arial', 'Helvetica', 'DejaVu Sans', sans-serif; text-anchor: middle; fill: #3c4043" x="964.656" y="141.050696" transform="rotate(-0 964.656 141.050696)">86.3</text>
   </g>
   <g id="text_27">
    <text style="font-size: 10px; font-family: 'Arial', 'Helvetica', 'DejaVu Sans', sans-serif; text-anchor: middle; fill: #3c4043" x="1288.656" y="147.613651" transform="rotate(-0 1288.656 147.613651)">84.4</text>
   </g>
   <g id="text_28">
    <text style="font-size: 10px; font-family: 'Arial', 'Helvetica', 'DejaVu Sans', sans-serif; text-anchor: middle; fill: #3c4043" x="363.312" y="148.523527" transform="rotate(-0 363.312 148.523527)">85.5</text>
   </g>
   <g id="text_29">
    <text style="font-size: 10px; font-family: 'Arial', 'Helvetica', 'DejaVu Sans', sans-serif; text-anchor: middle; fill: #3c4043" x="687.312" y="128.665839" transform="rotate(-0 687.312 128.665839)">91.0</text>
   </g>
   <g id="text_30">
    <text style="font-size: 10px; font-family: 'Arial', 'Helvetica', 'DejaVu Sans', sans-serif; text-anchor: middle; fill: #3c4043" x="1011.312" y="139.84236" transform="rotate(-0 1011.312 139.84236)">87.9</text>
   </g>
   <g id="text_31">
    <text style="font-size: 10px; font-family: 'Arial', 'Helvetica', 'DejaVu Sans', sans-serif; text-anchor: middle; fill: #3c4043" x="1335.312" y="143.665736" transform="rotate(-0 1335.312 143.665736)">86.8</text>
   </g>
   <g id="text_32">
    <text style="font-weight: 600; font-size: 17px; font-family: 'Arial', 'Helvetica', 'DejaVu Sans', sans-serif; text-anchor: middle; fill: #202124" x="756" y="91.68" transform="rotate(-0 756 91.68)">All velocities</text>
   </g>
  </g>
  <g id="text_33">
   <text style="font-weight: 600; font-size: 24px; font-family: 'Arial', 'Helvetica', 'DejaVu Sans', sans-serif; text-anchor: middle; fill: #202124" x="720" y="27.83925" transform="rotate(-0 720 27.83925)">Fig. 7.1 · Unitree Go2: gait fidelity by family</text>
  </g>
  <g id="text_34">
   <text style="font-size: 13px; font-family: 'Arial', 'Helvetica', 'DejaVu Sans', sans-serif; text-anchor: middle; fill: #5f6368" x="720" y="55.673156" transform="rotate(-0 720 55.673156)">All velocities · gait agreement only · higher is better</text>
  </g>
  <g id="legend_1">
   <g id="patch_23">
    <path d="M 480.164062 552.306375 
L 501.764062 552.306375 
L 501.764062 543.906375 
L 480.164062 543.906375 
z
" style="fill: #202124; opacity: 0.88"/>
   </g>
   <g id="text_35">
    <text style="font-size: 12px; font-family: 'Arial', 'Helvetica', 'DejaVu Sans', sans-serif; text-anchor: start; fill: #202124" x="511.364062" y="552.306375" transform="rotate(-0 511.364062 552.306375)">NoTRS</text>
   </g>
   <g id="patch_24">
    <path d="M 577.103437 552.306375 
L 598.703437 552.306375 
L 598.703437 543.906375 
L 577.103437 543.906375 
z
" style="fill: #0072b2; opacity: 0.88"/>
   </g>
   <g id="text_36">
    <text style="font-size: 12px; font-family: 'Arial', 'Helvetica', 'DejaVu Sans', sans-serif; text-anchor: start; fill: #202124" x="608.303437" y="552.306375" transform="rotate(-0 608.303437 552.306375)">Low-r0</text>
   </g>
   <g id="patch_25">
    <path d="M 671.380312 552.306375 
L 692.980312 552.306375 
L 692.980312 543.906375 
L 671.380312 543.906375 
z
" style="fill: #56b4e9; opacity: 0.88"/>
   </g>
   <g id="text_37">
    <text style="font-size: 12px; font-family: 'Arial', 'Helvetica', 'DejaVu Sans', sans-serif; text-anchor: start; fill: #202124" x="702.580312" y="552.306375" transform="rotate(-0 702.580312 552.306375)">Low-r500</text>
   </g>
   <g id="patch_26">
    <path d="M 779.003438 552.306375 
L 800.603438 552.306375 
L 800.603438 543.906375 
L 779.003438 543.906375 
z
" style="fill: #d97706; opacity: 0.88"/>
   </g>
   <g id="text_38">
    <text style="font-size: 12px; font-family: 'Arial', 'Helvetica', 'DejaVu Sans', sans-serif; text-anchor: start; fill: #202124" x="810.203438" y="552.306375" transform="rotate(-0 810.203438 552.306375)">High-r0</text>
   </g>
   <g id="patch_27">
    <path d="M 875.946563 552.306375 
L 897.546563 552.306375 
L 897.546563 543.906375 
L 875.946563 543.906375 
z
" style="fill: #00875a; opacity: 0.88"/>
   </g>
   <g id="text_39">
    <text style="font-size: 12px; font-family: 'Arial', 'Helvetica', 'DejaVu Sans', sans-serif; text-anchor: start; fill: #202124" x="907.146563" y="552.306375" transform="rotate(-0 907.146563 552.306375)">High-r500</text>
   </g>
  </g>
 </g>
 <defs>
  <clipPath id="pfe84234a60">
   <rect x="108" y="103.68" width="1296" height="357.12"/>
  </clipPath>
 </defs>
</svg>
